<?xml version="1.0" standalone="no"?>
<!DOCTYPE svg PUBLIC "-//W3C//DTD SVG 20010904//EN"
 "http://www.w3.org/TR/2001/REC-SVG-20010904/DTD/svg10.dtd">
<svg version="1.0" xmlns="http://www.w3.org/2000/svg"
 width="180.000000pt" height="180.000000pt" viewBox="0 0 180.000000 180.000000"
 preserveAspectRatio="xMidYMid meet">

<g transform="translate(0.000000,180.000000) scale(0.100000,-0.100000)"
fill="#000000" stroke="none">
<path d="M688 1185 c-55 -31 -60 -58 -60 -292 0 -200 2 -215 21 -242 42 -59
135 -64 188 -9 28 29 28 29 28 166 l0 137 -57 3 -58 3 0 -36 c0 -29 4 -35 20
-35 20 0 21 -5 18 -97 l-3 -98 -28 -3 c-55 -6 -57 3 -57 213 0 171 2 195 18
215 24 29 60 20 68 -18 3 -15 7 -33 10 -39 5 -18 63 -16 70 1 9 24 -14 91 -40
115 -31 30 -100 37 -138 16z"/>
<path d="M937 1183 c-3 -5 -6 -131 -6 -279 -1 -301 3 -319 53 -296 l26 12 0
137 c0 75 3 133 8 128 4 -6 25 -64 46 -130 22 -66 44 -126 49 -132 5 -7 27
-13 48 -13 l38 0 -25 68 c-14 37 -39 102 -56 146 l-31 78 21 62 c11 33 35 97
51 141 17 44 31 81 31 83 0 2 -19 2 -42 0 l-43 -3 -42 -125 c-24 -69 -44 -127
-45 -130 -1 -3 -5 54 -8 125 l-5 130 -32 3 c-17 2 -34 -1 -36 -5z"/>
</g>
</svg>
